<?xml version="1.0" encoding="UTF-8" standalone="no"?>
<!-- Created with Inkscape (http://www.inkscape.org/) -->

<svg
   xmlns:dc="http://purl.org/dc/elements/1.1/"
   xmlns:cc="http://creativecommons.org/ns#"
   xmlns:rdf="http://www.w3.org/1999/02/22-rdf-syntax-ns#"
   xmlns:svg="http://www.w3.org/2000/svg"
   xmlns="http://www.w3.org/2000/svg"
   xmlns:sodipodi="http://sodipodi.sourceforge.net/DTD/sodipodi-0.dtd"
   xmlns:inkscape="http://www.inkscape.org/namespaces/inkscape"
   width="1052.3622"
   height="744.09448"
   id="svg2"
   version="1.1"
   inkscape:version="0.48.4 r9939"
   sodipodi:docname="                            1">
  <defs
     id="defs4">
    <filter
       inkscape:collect="always"
       id="filter3789">
      <feGaussianBlur
         inkscape:collect="always"
         stdDeviation="8.713125"
         id="feGaussianBlur3791" />
    </filter>
    <filter
       inkscape:collect="always"
       id="filter3799">
      <feGaussianBlur
         inkscape:collect="always"
         stdDeviation="8.7202381"
         id="feGaussianBlur3801" />
    </filter>
    <filter
       inkscape:collect="always"
       id="filter3833">
      <feGaussianBlur
         inkscape:collect="always"
         stdDeviation="5.1944444"
         id="feGaussianBlur3835" />
    </filter>
  </defs>
  <sodipodi:namedview
     id="base"
     pagecolor="#ffffff"
     bordercolor="#666666"
     borderopacity="1.0"
     inkscape:pageopacity="0.0"
     inkscape:pageshadow="2"
     inkscape:zoom="0.71"
     inkscape:cx="494.98708"
     inkscape:cy="420.20055"
     inkscape:document-units="px"
     inkscape:current-layer="layer1"
     showgrid="false"
     inkscape:window-width="1280"
     inkscape:window-height="970"
     inkscape:window-x="-4"
     inkscape:window-y="-4"
     inkscape:window-maximized="1">
    <inkscape:grid
       type="xygrid"
       id="grid3011"
       empspacing="5"
       visible="true"
       enabled="true"
       snapvisiblegridlinesonly="true" />
  </sodipodi:namedview>
  <metadata
     id="metadata7">
    <rdf:RDF>
      <cc:Work
         rdf:about="">
        <dc:format>image/svg+xml</dc:format>
        <dc:type
           rdf:resource="http://purl.org/dc/dcmitype/StillImage" />
        <dc:title></dc:title>
      </cc:Work>
    </rdf:RDF>
  </metadata>
  <g
     inkscape:label="Layer 1"
     inkscape:groupmode="layer"
     id="layer1"
     transform="translate(0,-308.2677)">
    <path
       id="path3787"
       transform="translate(0,308.2677)"
       d="M 194.4375 47.46875 C 188.8975 47.46875 184.4375 51.92875 184.4375 57.46875 L 184.4375 99.21875 L 160.59375 99.21875 C 155.05375 99.21875 150.59375 103.67875 150.59375 109.21875 L 150.59375 489.21875 C 150.59375 490.65389 150.89766 492.01857 151.4375 493.25 L 151.4375 558.375 L 801.4375 558.375 L 801.4375 158.375 L 800.59375 158.375 L 800.59375 109.21875 C 800.59375 103.67875 796.13375 99.21875 790.59375 99.21875 L 454.8125 99.21875 L 454.8125 57.46875 C 454.8125 51.92875 450.3525 47.46875 444.8125 47.46875 L 194.4375 47.46875 z "
       style="fill:#000000;fill-opacity:1;fill-rule:nonzero;stroke:#6400ed;stroke-width:1;stroke-linejoin:miter;stroke-miterlimit:4;stroke-opacity:1;stroke-dasharray:none;stroke-dashoffset:0;filter:url(#filter3789)" />
    <g
       id="g3837">
      <path
         id="rect2993"
         transform="translate(0,308.2677)"
         d="M 194.4375 47.46875 C 188.8975 47.46875 184.4375 51.92875 184.4375 57.46875 L 184.4375 99.21875 L 160.59375 99.21875 C 155.05375 99.21875 150.59375 103.67875 150.59375 109.21875 L 150.59375 489.21875 C 150.59375 490.65389 150.89766 492.01857 151.4375 493.25 L 151.4375 558.375 L 801.4375 558.375 L 801.4375 158.375 L 800.59375 158.375 L 800.59375 109.21875 C 800.59375 103.67875 796.13375 99.21875 790.59375 99.21875 L 454.8125 99.21875 L 454.8125 57.46875 C 454.8125 51.92875 450.3525 47.46875 444.8125 47.46875 L 194.4375 47.46875 z "
         style="fill:#dbde21;fill-opacity:1;fill-rule:nonzero;stroke:#6400ed;stroke-width:1;stroke-linejoin:miter;stroke-miterlimit:4;stroke-opacity:1;stroke-dasharray:none;stroke-dashoffset:0" />
      <rect
         style="fill:#000000;fill-opacity:1;fill-rule:nonzero;stroke:#6400ed;stroke-width:1;stroke-linejoin:miter;stroke-miterlimit:4;stroke-opacity:1;stroke-dasharray:none;stroke-dashoffset:0;filter:url(#filter3833)"
         id="rect3803"
         width="627.77777"
         height="411.11111"
         x="159.25926"
         y="433.84366" />
      <rect
         y="436.66055"
         x="160.66771"
         height="411.11111"
         width="627.77777"
         id="rect3017"
         style="fill:#ffffff;fill-opacity:1;fill-rule:nonzero;stroke:#6400ed;stroke-width:1;stroke-linejoin:miter;stroke-miterlimit:4;stroke-opacity:1;stroke-dasharray:none;stroke-dashoffset:0" />
      <path
         style="fill:#000000;fill-opacity:1;fill-rule:nonzero;stroke:#6400ed;stroke-width:1;stroke-linejoin:miter;stroke-miterlimit:4;stroke-opacity:1;stroke-dashoffset:0;filter:url(#filter3799)"
         d="m 281.40845,470.95373 640,0 -119.04762,393.65079 -650,0 z"
         id="path3793"
         inkscape:connector-curvature="0"
         sodipodi:nodetypes="ccccc" />
      <path
         sodipodi:nodetypes="ccccc"
         inkscape:connector-curvature="0"
         id="rect3005"
         d="m 280,472.36218 640,0 -119.04762,393.65079 -650,0 z"
         style="fill:#ebeb14;fill-opacity:1;fill-rule:nonzero;stroke:#6400ed;stroke-width:1;stroke-linejoin:miter;stroke-miterlimit:4;stroke-opacity:1;stroke-dashoffset:0" />
    </g>
  </g>
</svg>
